<?xml version="1.0" standalone="no"?><!DOCTYPE svg PUBLIC "-//W3C//DTD SVG 1.1//EN" "http://www.w3.org/Graphics/SVG/1.1/DTD/svg11.dtd"><svg t="1719554255343" class="icon" viewBox="0 0 1024 1024" version="1.1" xmlns="http://www.w3.org/2000/svg" p-id="4384" xmlns:xlink="http://www.w3.org/1999/xlink" width="200" height="200"><path d="M512.796029 970.586145c-44.734264 0-86.786326-17.419924-118.419681-49.050083l-289.760894-289.760894c-65.296744-65.296744-65.296744-171.542618 0-236.836165L394.376348 105.178109c31.630158-31.633355 73.685417-49.050083 118.419681-49.050083s86.789523 17.419924 118.419681 49.050083l289.760894 289.760894c65.296744 65.296744 65.296744 171.542618 0 236.836165l-289.760894 289.760894c-31.630158 31.626961-73.685417 49.050083-118.419681 49.050083z m0-869.704674c-32.777846 0-63.592794 12.765234-86.770341 35.942781l-289.760895 289.760894c-47.84485 47.84485-47.84485 125.695832 0 173.543879l289.760895 289.760894c23.177547 23.177547 53.992495 35.94278 86.770341 35.942781s63.595991-12.765234 86.773538-35.942781l289.760894-289.760894c47.84485-47.84485 47.84485-125.695832 0-173.543879l-289.760894-289.760894c-23.177547-23.177547-53.995692-35.94278-86.773538-35.942781z" fill="#009FE8" p-id="4385"></path><path d="M590.752509 778.231688h-151.654685a22.378321 22.378321 0 0 1-22.378321-22.378321v-137.898411H278.821092a22.378321 22.378321 0 0 1-22.378321-22.378321V443.921951a22.378321 22.378321 0 0 1 22.378321-22.378321h137.901608V283.645219a22.378321 22.378321 0 0 1 22.378321-22.378321h151.654684a22.378321 22.378321 0 0 1 22.378321 22.378321v137.898411h137.901608a22.378321 22.378321 0 0 1 22.378321 22.378321v151.654684a22.378321 22.378321 0 0 1-22.378321 22.378321H613.134026v137.898411a22.381518 22.381518 0 0 1-22.381517 22.378321z m-129.273167-44.756642h106.898042v-137.898411a22.378321 22.378321 0 0 1 22.378321-22.378321h137.901608V466.300272H590.755705a22.378321 22.378321 0 0 1-22.378321-22.378321V306.02354h-106.898042v137.898411a22.378321 22.378321 0 0 1-22.378321 22.378321H301.199413v106.898042h137.901608a22.378321 22.378321 0 0 1 22.378321 22.378321v137.898411z" fill="#009FE8" p-id="4386"></path></svg>